{"title":"WWE Friday Night Smackdown 2013 10 25 HDTV x264-GTS","uid":9097741,"size":501670270,"categoryP":"video","categoryS":"hd___tv_shows","magnet":"?xt=urn:btih:a53f2327d76063f96be26b5280180461b6149796&amp;dn=WWE+Friday+Night+Smackdown+2013+10+25+HDTV+x264-GTS&amp;tr=udp%3A%2F%2Ftracker.openbittorrent.com%3A80&amp;tr=udp%3A%2F%2Fopen.demonii.com%3A1337&amp;tr=udp%3A%2F%2Ftracker.coppersurfer.tk%3A6969&amp;tr=udp%3A%2F%2Fexodus.desync.com%3A6969","seeders":0,"leechers":1,"uploader":"RDS31","files":1,"time":1382724127,"description":"Release Date.USA : 25/10/13\nFormat : MP4\nFile size : 478 MiB\nDuration : 01:23:00\nOverall bit rate : 799 Kbps\nTagging application : Yet Another Metadata Injector for FLV - Version 1.9\n\n\n\n\nVideo\nFormat : AVC\nFormat/Info : Advanced Video Codec\nFormat profile : &lt;a class=&quot;__cf_email__&quot; href=&quot;/cdn-cgi/l/email-protection&quot; data-cfemail=&quot;5911303e3119156a7769&quot;&gt;[email&amp;#160;protected]&lt;/a&gt;&lt;script cf-hash='f9e31' type=&quot;text/javascript&quot;&gt;\n/* &lt;![CDATA[ */!function(){try{var t=&quot;currentScript&quot;in document?document.currentScript:function(){for(var t=document.getElementsByTagName(&quot;script&quot;),e=t.length;e--;)if(t[e].getAttribute(&quot;cf-hash&quot;))return t[e]}();if(t&amp;&amp;t.previousSibling){var e,r,n,i,c=t.previousSibling,a=c.getAttribute(&quot;data-cfemail&quot;);if(a){for(e=&quot;&quot;,r=parseInt(a.substr(0,2),16),n=2;a.length-n;n+=2)i=parseInt(a.substr(n,2),16)^r,e+=String.fromCharCode(i);e=document.createTextNode(e),c.parentNode.replaceChild(e,c)}}}catch(u){}}();/* ]]&gt; */&lt;/script&gt;\nFormat settings, CABAC : Yes\nFormat settings, ReFrames : 4 frames\nCodec ID : 7\nBit rate : 700 Kbps\nWidth : 704 pixels\nHeight : 400 pixels\nDisplay aspect ratio : 16:9\nFrame rate mode : Constant\nFrame rate : 29.970 fps\nColor space : YUV\nChroma subsampling : 4:2:0\nBit depth : 8 bits\nScan type : Progressive\nBits/(Pixel*Frame) : 0.083\nStream size : 417 MiB (87%)\nWriting library : x264 core 128 r2 198a7ea\n\n\n\n\nAudio\nFormat : AAC\nFormat/Info : Advanced Audio Codec\nFormat profile : LC\nCodec ID : 10\nDuration : 1h 23mn\nBit rate : 94.4 Kbps\nChannel(s) : 2 channels\nChannel positions : Front: L R\nSampling rate : 44.1 KHz\nCompression mode : Lossy\nDelay relative to video : 65ms\nStream size : 60.1 MiB (13%)","torrent":{"xt":"urn:btih:a53f2327d76063f96be26b5280180461b6149796","amp;dn":"WWE+Friday+Night+Smackdown+2013+10+25+HDTV+x264-GTS","amp;tr":["udp%3A%2F%2Ftracker.openbittorrent.com%3A80","udp%3A%2F%2Fopen.demonii.com%3A1337","udp%3A%2F%2Ftracker.coppersurfer.tk%3A6969","udp%3A%2F%2Fexodus.desync.com%3A6969"],"infoHash":"a53f2327d76063f96be26b5280180461b6149796","infoHashBuffer":{"type":"Buffer","data":[165,63,35,39,215,96,99,249,107,226,107,82,128,24,4,97,182,20,151,150]},"announce":[],"urlList":[]}}